PathFileType	4	(X/Y/Z)	/Users/visionmauri/Downloads/Videos/OAW01-top_Sports2D/OAW01-top_Sports2D_px_person00.trc
DataRate	CameraRate	NumFrames	NumMarkers	Units	OrigDataRate	OrigDataStartFrame	OrigNumFrames
26.0	26.0	6	22	m	26.0	508	2035
Frame#	Time	Hip			RHip			RKnee			RAnkle			RBigToe			RSmallToe			RHeel			LHip			LKnee			LAnkle			LBigToe			LSmallToe			LHeel			Neck			Head			Nose			RShoulder			RElbow			RWrist			LShoulder			LElbow			LWrist			
		X1	Y1	Z1	X2	Y2	Z2	X3	Y3	Z3	X4	Y4	Z4	X5	Y5	Z5	X6	Y6	Z6	X7	Y7	Z7	X8	Y8	Z8	X9	Y9	Z9	X10	Y10	Z10	X11	Y11	Z11	X12	Y12	Z12	X13	Y13	Z13	X14	Y14	Z14	X15	Y15	Z15	X16	Y16	Z16	X17	Y17	Z17	X18	Y18	Z18	X19	Y19	Z19	X20	Y20	Z20	X21	Y21	Z21	X22	Y22	Z22
508	19.548067468421454	528.9003389013104	783.1184892865596	0.0	493.8138440273222	784.6978548400408	0.0	502.8166094439431	926.0921981362186	0.0	506.842525265496	1057.4587037079614	0.0	514.190599553185	1102.879715802936	0.0	497.0055268019141	1098.4558753373226	0.0	506.1554338089675	1072.4330132537848	0.0	560.767467583145	781.909775933711	0.0	565.0312722218465	915.4375830463554	0.0	554.8812428254712	980.7644608886638	0.0	545.2845651787728	1034.1074492680598	0.0	562.2753784576385	1026.937784370489	0.0	549.6450848432097	984.1362123747732	0.0	534.2544224597149	596.7248439669993	0.0	540.8728968240372	497.3495776173238	0.0	536.0609590758266	561.8228249953287	0.0	468.76463534374284	610.5594246876028	0.0	448.1449614360395	716.0366228401721	0.0	434.56472149929084	800.6161355882809	0.0	598.9298595255436	613.867862503789	0.0	614.7501631347424	717.9874888216065	0.0	618.1909344418594	801.2163793546216	0.0
509	19.586547916193936	528.3993062903253	785.7946205566441	0.0	493.5424374629705	788.4549023467885	0.0	502.92706910998226	929.1844579962053	0.0	506.77350128660925	1057.7679652185323	0.0	514.9859888076141	1103.094870243182	0.0	496.82393444089786	1098.8773434727957	0.0	506.9826394388061	1072.3548163150185	0.0	560.4810861038576	786.0741943550141	0.0	565.4659463372988	921.4582888863978	0.0	556.2470933719751	987.1342089403722	0.0	548.0477294855193	1044.2617026788305	0.0	565.4078846214235	1036.9561997661974	0.0	551.0429904401662	991.687701764765	0.0	532.835834759594	599.5558118211902	0.0	538.8070368987317	501.10116993794566	0.0	534.6090414856748	566.1061903601974	0.0	467.77618070495856	613.2105517280273	0.0	445.27655573764395	720.736030807341	0.0	430.9118099264386	808.1691045246724	0.0	598.9332585963372	615.7093108416555	0.0	612.9869945726984	721.1814176755921	0.0	617.2864904641475	806.1092214204947	0.0
510	19.62502836396642	528.339169384024	788.713859352857	0.0	494.1063698261224	792.202409619316	0.0	502.92064915434685	932.0447313649435	0.0	507.1281561746501	1056.68193990646	0.0	514.7251763835266	1103.1927093124577	0.0	496.02501449387466	1098.684472834093	0.0	508.0193746101905	1071.010457729665	0.0	560.5237844670462	790.3558254832726	0.0	563.9434997671977	929.8154096070168	0.0	556.3293367537253	1002.356767118711	0.0	548.7933115849283	1062.100723870351	0.0	566.9713093023978	1055.6030934718933	0.0	551.9920630223265	1008.6777747447111	0.0	531.0035077760757	601.4054039484217	0.0	536.476313402623	501.56211432614884	0.0	533.341518073419	568.3731573036995	0.0	466.4978624718307	615.7134515823332	0.0	442.94391711251546	724.6460652708923	0.0	428.1044014612399	814.6840782426956	0.0	598.4001612635421	617.0331406078419	0.0	611.3077332927872	722.8282485360451	0.0	615.4462456493671	807.6207986683844	0.0
511	19.663508811738904	528.7983818462611	792.6655723172992	0.0	494.6968847884448	795.8800421947125	0.0	502.58520515454774	935.2751492578343	0.0	507.87862433719823	1055.9753236917995	0.0	514.1268052331586	1103.5178203306295	0.0	494.6923270689092	1098.1723877174577	0.0	509.4167492938256	1070.673434829062	0.0	561.3289708719205	793.564674958216	0.0	561.8334379169524	937.9042313920626	0.0	555.9467307820792	1025.2649663566715	0.0	547.8517881094622	1083.2993255586473	0.0	567.4518588461059	1078.6729568003263	0.0	552.6526138736148	1033.215784523038	0.0	529.6533782417437	602.7763651869834	0.0	535.868522516955	500.76504637881493	0.0	532.9219465936101	568.3894689052358	0.0	465.00757274004485	617.9723005380325	0.0	441.50128946642536	727.6835106885275	0.0	426.73064694933316	819.2990808550221	0.0	597.9463154061998	618.3473788507094	0.0	609.8707433663467	722.6901763058072	0.0	612.9791552428692	806.6968737931721	0.0
512	19.701989259511386	529.3212307154174	796.5533831547781	0.0	494.932327764265	800.0657891726499	0.0	502.3691053421768	938.847279528974	0.0	508.2903245500133	1055.874025997618	0.0	513.4532975589224	1103.3466736706002	0.0	493.48555248279223	1097.245091145837	0.0	510.7649131895735	1070.613752314311	0.0	562.4214582470765	796.6711891361158	0.0	560.4207423298785	944.7473166820776	0.0	555.229583519628	1052.1716714364068	0.0	545.7107878540172	1105.3601938369188	0.0	567.2942961610551	1102.1164263745297	0.0	553.0020578702746	1061.6830243615782	0.0	529.2458541821995	604.2697215368352	0.0	536.8113574851897	499.4381856943095	0.0	533.0855192889608	566.2898477268164	0.0	463.8157757901416	620.3658300213841	0.0	440.64183754343037	730.4726041410848	0.0	426.4884889953474	822.54052333567	0.0	598.1239102987074	620.3489144098136	0.0	608.7133746008434	722.199411723298	0.0	610.7878006190261	804.9298486312308	0.0
513	19.740469707283868	529.5692848745246	799.8298801132244	0.0	494.855502024829	805.140997119268	0.0	502.4568228609541	943.4455533199439	0.0	507.86396492000034	1055.2190936419531	0.0	512.2034101561708	1103.3356019388375	0.0	492.5350834541154	1096.526476865126	0.0	510.97700128817837	1067.2729158642924	0.0	562.7890774768482	801.2294860315911	0.0	559.426713775438	951.5016073390362	0.0	554.5639689420458	1079.4413144692585	0.0	544.1168392084559	1127.5534450037533	0.0	566.7495796514963	1124.3282712000566	0.0	553.3982834149704	1089.7162580258912	0.0	529.5052954969376	607.5458162546884	0.0	537.4746337020035	498.98833802711374	0.0	533.4019856163156	566.1856898270918	0.0	463.01444447338486	624.0139371433444	0.0	439.85601227161294	733.7653894225732	0.0	427.3033176692913	825.9349041126729	0.0	598.5065892387167	624.0238487579471	0.0	608.0211238178607	723.7683723107729	0.0	608.7814930785423	803.681591536466	0.0
